<?xml version="1.0" encoding="utf-8"?>
<!-- Generator: Adobe Illustrator 26.5.0, SVG Export Plug-In . SVG Version: 6.00 Build 0)  -->
<svg version="1.1" id="Calque_2" xmlns="http://www.w3.org/2000/svg" xmlns:xlink="http://www.w3.org/1999/xlink" x="0px" y="0px"
	 viewBox="0 0 165.35 183.33" style="enable-background:new 0 0 165.35 183.33;" xml:space="preserve">
<style type="text/css">
	.st0{fill:#8D8785;}
	.st1{fill:#C2052B;}
</style>
<path class="st0" d="M81.14,136.81V101.9H48.15C57.61,128.76,75.5,135.37,81.14,136.81z M80.78,160.22
	c-14.7-5.8-26.57-17.1-33.08-31.5c-3.85-8.44-6.08-17.53-6.57-26.79l0-0.04H18.49v62.65h62.65v-4.17L80.78,160.22z M125.64,96.49
	c5-7.48,15.34-26.31,3.49-39.78c-3.12-3.54-6.71-5.34-10.67-5.34c-11.55,0-24.13,14.8-30.61,23.62l-0.97,1.32l-1.79,16.13
	l40.27,4.46L125.64,96.49z M92,30.17L90.56,43.1c4.41-2.23,12.5-5.63,20.85-5.63l0,0c3.89-0.05,7.74,0.79,11.25,2.47
	c3.97,1.94,7.53,4.63,10.49,7.92c3.16,3.52,5.42,7.76,6.6,12.34c1.34,5.55,1.26,11.35-0.21,16.87c-1.61,6.47-4.9,13.31-9.76,20.33
	l17.59,1.95l6.9-62.27L92,30.17z M59.73,52.59c-1.55,0-3.09,0.28-4.54,0.83c-13.42,5.09-20.18,24.17-6.48,45.8H28.74
	c-2.08-6.3-8.2-29.1,6.52-43.31c7.26-7.01,14.84-10.38,22.06-10.38l0,0c8.88,0,17.22,5.1,23.8,14.81v6.09
	C77.23,61.64,68.71,52.59,59.73,52.59z M120.92,101.95h20.74c-4.24,14.32-30.15,45.08-57.63,48.59v-7.76
	C91.57,140.74,111.34,131.5,120.92,101.95z"/>
<path class="st1" d="M27.76,99.17h-9.28V36.52h62.65v22.1c-2.83-4.04-6.4-7.5-10.54-10.18c-3.96-2.52-8.56-3.88-13.26-3.9l0-0.01
	c-7.65,0-15.5,3.68-22.72,10.65c-6.47,6.25-9.78,14.76-9.85,25.3C24.8,86.82,25.81,93.13,27.76,99.17z M80.4,66.97
	c-2.54-3.17-5.43-6.04-8.62-8.56c-4.27-3.27-8.32-4.93-12.03-4.93c-1.44,0-2.86,0.26-4.21,0.77c-5.79,2.28-10.22,7.08-12.03,13.03
	c-1.45,4.61-1.75,9.5-0.88,14.25c1.13,6.11,3.48,11.94,6.89,17.13l0.32,0.5h31.29V67.88L80.4,66.97z M101.1,131.92
	c8.41-7.43,14.74-17.53,18.84-30.02H84.04v39.85C86.84,140.95,93.64,138.51,101.1,131.92z M142.66,101.9l-0.08,0.27
	c-2.32,7.85-10.5,19.41-20.36,28.77c-5.34,5.14-11.29,9.62-17.71,13.32c-6.25,3.69-13.16,6.12-20.35,7.18l-0.12,0.02v13.1h62.65
	V101.9H142.66z M81.12,159.4v-21.56c-5.33-1.31-24.24-7.84-33.99-35.89h-5.07C42.41,110.2,45.98,145.03,81.12,159.4z M122.23,40.84
	c-3.38-1.62-7.09-2.43-10.84-2.37l0,0c-8.39,0-16.5,3.49-20.98,5.81l-3.35,30.21c6.23-8.48,19.17-24,31.37-24
	c3.96,0,7.83,1.63,11.38,5.66c12.29,13.97,1.71,33.26-3.41,40.93l2.28,0.25C149.41,67.82,137.33,48.28,122.23,40.84z"/>
<path d="M122.68,3.25c-0.11-0.25,0.01-0.55,0.26-0.66c0,0,0.16-0.07,0.47-0.18c0.22-0.08,0.45,0.01,0.57,0.2
	c-0.01-0.22,0.13-0.43,0.35-0.5c0.96-0.29,1.96-0.52,2.98-0.68c0.27-0.04,0.53,0.14,0.57,0.41c0.04,0.27-0.14,0.53-0.41,0.57
	c-0.98,0.16-1.94,0.38-2.86,0.65c-0.05,0.01-0.1,0.02-0.14,0.02c-0.17,0-0.32-0.11-0.41-0.26c0.02,0.22-0.1,0.44-0.32,0.52
	c-0.26,0.09-0.4,0.15-0.41,0.15c-0.06,0.03-0.13,0.04-0.19,0.04C122.95,3.56,122.76,3.44,122.68,3.25z M143.58,7.22
	c0.1,0.1,0.23,0.15,0.36,0.15c0.13,0,0.25-0.05,0.35-0.14c0.2-0.19,0.2-0.51,0.01-0.71c-0.73-0.74-1.51-1.42-2.33-2.01
	c-0.22-0.16-0.54-0.11-0.7,0.11c-0.16,0.22-0.11,0.54,0.11,0.7C142.15,5.88,142.89,6.52,143.58,7.22z M149.09,17.38
	c0.05,0.23,0.26,0.39,0.49,0.39c0.04,0,0.07,0,0.11-0.01c0.27-0.06,0.44-0.33,0.38-0.6c-0.22-0.99-0.52-1.98-0.88-2.94
	c-0.1-0.26-0.38-0.39-0.64-0.29c-0.26,0.1-0.39,0.39-0.29,0.64C148.6,15.49,148.88,16.43,149.09,17.38z M147.65,31.76
	c-0.38,0.92-0.8,1.81-1.27,2.65c-0.13,0.24-0.05,0.55,0.2,0.68c0.08,0.04,0.16,0.06,0.24,0.06c0.18,0,0.35-0.09,0.44-0.26
	c0.31-0.57,0.61-1.16,0.89-1.76c0.06,0.2,0.25,0.35,0.47,0.35c0.91,0.01,1.88,0.13,2.87,0.35c0.28,0.06,0.54-0.11,0.6-0.38
	s-0.11-0.54-0.38-0.6c-1.06-0.23-2.09-0.36-3.07-0.37c-0.09,0-0.15,0.02-0.22,0.05c0.06-0.13,0.11-0.26,0.16-0.39
	c0.1-0.26-0.02-0.55-0.27-0.65C148.05,31.38,147.75,31.5,147.65,31.76z M146.27,10.62c0.27,0.43,0.53,0.86,0.77,1.3
	c0.09,0.17,0.26,0.26,0.44,0.26c0.08,0,0.16-0.02,0.24-0.06c0.24-0.13,0.33-0.44,0.2-0.68c-0.25-0.45-0.52-0.91-0.8-1.35
	c-0.27-0.43-0.55-0.84-0.84-1.23c-0.16-0.22-0.48-0.27-0.7-0.11c-0.22,0.16-0.27,0.48-0.11,0.7
	C145.74,9.82,146.01,10.21,146.27,10.62z M149.27,26.11c-0.16,0.96-0.38,1.92-0.65,2.87c-0.08,0.27,0.08,0.54,0.34,0.62
	c0.05,0.01,0.09,0.02,0.14,0.02c0.22,0,0.42-0.14,0.48-0.36c0.28-0.98,0.51-1.98,0.68-2.98c0.05-0.27-0.14-0.53-0.41-0.58
	C149.58,25.67,149.31,25.84,149.27,26.11z M158.89,43.65c-0.26-0.08-0.54,0.07-0.62,0.33c-0.27,0.89-0.65,1.79-1.13,2.66
	c-0.13,0.24-0.05,0.55,0.2,0.68c0.08,0.04,0.16,0.06,0.24,0.06c0.18,0,0.35-0.09,0.44-0.26c0.52-0.93,0.92-1.89,1.21-2.85
	C159.3,44,159.16,43.73,158.89,43.65z M149.53,20.27c0.05,0.61,0.08,1.23,0.08,1.84c0,0.36-0.01,0.73-0.02,1.08
	c-0.01,0.28,0.2,0.51,0.48,0.52c0.01,0,0.02,0,0.02,0c0.27,0,0.49-0.21,0.5-0.48c0.02-0.37,0.03-0.75,0.03-1.13
	c0-0.64-0.03-1.29-0.08-1.93c-0.02-0.28-0.29-0.48-0.54-0.46C149.72,19.75,149.51,19.99,149.53,20.27z M158.72,41.18
	c0,0.28,0.22,0.46,0.5,0.46c0.28,0,0.5-0.26,0.5-0.54c0-1.09-0.19-2.11-0.58-3.04c-0.11-0.26-0.4-0.37-0.65-0.27
	c-0.25,0.11-0.38,0.4-0.27,0.65C158.55,39.25,158.72,40.14,158.72,41.18z M154.24,34.7c0.94,0.41,1.74,0.92,2.39,1.5
	c0.1,0.09,0.22,0.13,0.34,0.13c0.14,0,0.27-0.06,0.37-0.16c0.19-0.2,0.17-0.52-0.03-0.71c-0.73-0.66-1.62-1.22-2.66-1.68
	c-0.25-0.11-0.55,0-0.66,0.26C153.87,34.29,153.98,34.59,154.24,34.7z M155.85,47.4c-0.27-0.05-0.53,0.12-0.59,0.4
	c-0.05,0.27,0.12,0.53,0.4,0.59c1.01,0.19,1.93,0.52,2.67,0.93c0.08,0.04,0.16,0.06,0.25,0.06c0.17,0,0.34-0.09,0.44-0.25
	c0.14-0.24,0.05-0.55-0.19-0.68C157.99,47.98,156.96,47.62,155.85,47.4z M153.36,58.02c-0.09-0.26-0.38-0.4-0.64-0.31
	c-1.17,0.41-2.13,1.36-2.38,2.37c-0.07,0.27,0.1,0.54,0.36,0.61c0.04,0.01,0.08,0.02,0.12,0.02c0.22,0,0.43-0.15,0.49-0.38
	c0.14-0.56,0.75-1.32,1.75-1.67C153.31,58.57,153.45,58.28,153.36,58.02z M159.73,56.28c-0.24-0.14-0.55-0.05-0.68,0.19
	c-0.22,0.39-0.47,0.78-0.74,1.16c-0.75-0.18-1.59-0.28-2.46-0.29c-0.29,0-0.5,0.22-0.51,0.49c0,0.28,0.22,0.5,0.49,0.51
	c0.63,0.01,1.24,0.07,1.8,0.17c-0.09,0.1-0.18,0.21-0.27,0.31c-0.18,0.21-0.17,0.52,0.04,0.71c0.09,0.09,0.21,0.13,0.33,0.13
	c0.14,0,0.27-0.06,0.37-0.17c0.2-0.23,0.4-0.46,0.59-0.71c0.25,0.05,0.49-0.09,0.57-0.34c0.04-0.13,0.03-0.27-0.03-0.39
	c0.25-0.35,0.47-0.72,0.68-1.08C160.06,56.73,159.97,56.42,159.73,56.28z M155.91,60.84c0.15,0.23,0.08,0.54-0.16,0.69
	c-0.25,0.16-0.5,0.3-0.75,0.41c0.17,5.08-0.36,10.47-1.65,15.98c-2.03,8.68-12.44,25.01-27.75,38.18
	c-6.63,5.7-14.37,9.84-21.2,13.49c-9.49,5.07-17.51,9.36-20.23,16.08c-0.01,0.05-0.03,0.1-0.06,0.15c-0.94,2.4-1.2,5.11-0.62,8.26
	c2.17,11.82,1.11,20.22-3.16,24.96c-3.18,3.53-7.1,3.82-8.31,3.82c-0.21,0-0.33-0.01-0.36-0.01c-0.28-0.02-0.48-0.26-0.46-0.54
	s0.26-0.46,0.54-0.46c0.04,0.01,4.48,0.28,7.87-3.5c3.98-4.44,4.98-12.77,2.9-24.09c-0.62-3.35-0.32-6.23,0.68-8.78
	c0-0.01,0-0.02,0-0.03c0.02-0.14,1.29-9.97-37.59-18.77c-22.08-5-38.87-19.07-43.81-36.72C-1.55,78,1.49,66.35,10.13,57.99
	c9.56-9.24,22.06-13.24,35.22-11.24c11.49,1.74,21.87,7.94,26.85,15.94c1.56-6.27,10.75-33.31,52.78-33.31
	c6.93,0,12.79,1.71,17.49,5.07c0.03-0.11,0.09-0.21,0.19-0.27c0.84-0.59,1.81-1.04,2.86-1.32c0.27-0.07,0.54,0.09,0.61,0.35
	c0.07,0.27-0.09,0.54-0.35,0.61c-0.94,0.25-1.8,0.65-2.55,1.17c0,0-0.01,0-0.01,0c0.68,0.52,1.33,1.09,1.96,1.69
	c0.11,0,0.22,0.02,0.32,0.09c0.13,0.1,0.19,0.24,0.19,0.39c0.7,0.71,1.38,1.46,2.01,2.26c1.81,2.28,3.29,4.92,4.44,7.83
	c0.2-0.02,0.39-0.05,0.6-0.06c0.31-0.02,0.51,0.19,0.53,0.47c0.02,0.28-0.19,0.51-0.47,0.53c-0.11,0.01-0.21,0.02-0.31,0.03
	c0.32,0.89,0.62,1.8,0.88,2.74c0.01-0.01,0.01-0.02,0.02-0.02c0.7-0.47,1.43-1.13,2.1-1.92c0.18-0.21,0.49-0.24,0.71-0.06
	c0.21,0.18,0.24,0.49,0.06,0.7c-0.73,0.86-1.53,1.59-2.31,2.11c-0.08,0.06-0.18,0.08-0.28,0.08c-0.02,0-0.04-0.01-0.06-0.01
	c0.72,2.82,1.17,5.84,1.34,8.99c0.09-0.05,0.18-0.09,0.27-0.15C155.45,60.54,155.76,60.61,155.91,60.84z M154.01,62.3
	c-0.38,0.1-0.76,0.17-1.12,0.17c0,0,0,0,0,0l-0.25-0.01c-0.28-0.02-0.49-0.25-0.47-0.53c0.01-0.28,0.22-0.49,0.53-0.47l0.1,0
	c0,0,0.01,0,0.01,0c0.39,0,0.78-0.07,1.17-0.19c-0.22-4.66-1.06-9.02-2.49-12.89c-0.52,0.12-0.98,0.28-1.32,0.49
	c-0.08,0.05-0.17,0.08-0.26,0.08c-0.17,0-0.33-0.08-0.42-0.24c-0.15-0.23-0.07-0.54,0.16-0.69c0.41-0.25,0.92-0.45,1.5-0.59
	c-1.1-2.75-2.51-5.23-4.22-7.39c-0.56-0.71-1.16-1.37-1.78-2c-0.57,0.69-1.14,1.28-1.68,1.7c-0.09,0.07-0.2,0.11-0.31,0.11
	c-0.15,0-0.29-0.07-0.39-0.19c-0.17-0.22-0.13-0.53,0.08-0.7c0.5-0.39,1.04-0.95,1.58-1.61c-4.9-4.62-11.42-6.97-19.45-6.97
	c-13.4,0-31.85,2.93-43.65,16.87c-7.06,8.34-8.41,16.8-8.42,16.88c-0.03,0.21-0.2,0.38-0.41,0.42c-0.22,0.04-0.42-0.06-0.53-0.25
	c-4.54-8.28-15.05-14.78-26.78-16.55c-2.16-0.33-4.3-0.49-6.41-0.49c-10.45,0-20.2,3.96-27.96,11.46
	C2.46,66.8-0.48,78.09,2.76,89.69c4.84,17.29,21.34,31.09,43.06,36.01c30.77,6.97,36.96,14.69,38.13,18.14
	c3.4-6.28,11.28-10.49,19.98-15.14c6.78-3.63,14.47-7.73,21.02-13.36c15.15-13.03,25.43-29.12,27.43-37.65
	C153.62,72.39,154.14,67.2,154.01,62.3z M161.12,54.08c0.15-0.59,0.22-1.16,0.22-1.68c0-0.45-0.05-0.87-0.16-1.25
	c-0.03-0.11-0.07-0.22-0.11-0.33c-0.1-0.26-0.39-0.38-0.65-0.28c-0.26,0.1-0.38,0.39-0.28,0.65c0.03,0.08,0.06,0.16,0.08,0.24
	c0.08,0.29,0.12,0.62,0.12,0.97c0,0.44-0.06,0.92-0.19,1.44c-0.07,0.27,0.1,0.54,0.37,0.61c0.04,0.01,0.08,0.01,0.12,0.01
	C160.86,54.46,161.06,54.31,161.12,54.08z M136.17,2.8c0.94,0.26,1.85,0.61,2.72,1.03c0.07,0.03,0.14,0.05,0.22,0.05
	c0.19,0,0.36-0.1,0.45-0.28c0.12-0.25,0.02-0.55-0.23-0.67c-0.92-0.44-1.89-0.81-2.88-1.09c-0.27-0.07-0.54,0.08-0.62,0.35
	C135.75,2.45,135.9,2.73,136.17,2.8z M130.39,2.13c0.96-0.03,1.97,0.01,2.92,0.11c0.02,0,0.04,0,0.06,0c0.25,0,0.47-0.19,0.5-0.44
	c0.03-0.27-0.17-0.52-0.44-0.55c-1-0.11-2.05-0.15-3.06-0.12c-0.28,0.01-0.49,0.24-0.48,0.52S130.11,2.17,130.39,2.13z
	 M141.17,36.31c-0.24-0.14-0.54-0.06-0.68,0.18c-0.44,0.76-0.68,1.55-0.68,2.23c0,0.44,0.1,0.82,0.29,1.13
	c0.09,0.15,0.26,0.23,0.42,0.23c0.09,0,0.18-0.02,0.27-0.08c0.23-0.15,0.3-0.46,0.16-0.69c-0.09-0.15-0.14-0.35-0.14-0.6
	c0-0.51,0.19-1.12,0.54-1.72C141.49,36.76,141.41,36.45,141.17,36.31z M150.87,52.79c0.28,0,0.5-0.22,0.5-0.5s-0.23-0.5-0.5-0.5
	c-0.98,0-1.76-0.42-1.91-1.03c-0.06-0.27-0.34-0.44-0.6-0.37c-0.27,0.06-0.44,0.33-0.37,0.6C148.24,52.07,149.4,52.79,150.87,52.79
	L150.87,52.79z M164.33,61.47c-0.13-0.02-0.26-0.05-0.38-0.08c-0.07-0.02-0.14-0.02-0.21-0.01c-0.03-0.04-0.07-0.08-0.11-0.1
	c-0.74-0.47-1.42-1.03-2.02-1.67c-0.19-0.2-0.5-0.21-0.71-0.02c-0.2,0.19-0.21,0.5-0.02,0.71c0.66,0.7,1.41,1.32,2.22,1.83
	c0.08,0.05,0.17,0.08,0.26,0.08c0.02,0,0.04-0.01,0.06-0.01c0.06,0.07,0.14,0.14,0.24,0.17c0.18,0.05,0.36,0.09,0.54,0.12
	c0.02,0,0.04,0,0.07,0c0.25,0,0.46-0.18,0.49-0.43C164.79,61.76,164.6,61.5,164.33,61.47z"/>
</svg>
